# xmcd
#
# Track frame offsets: 
#        150
#        9820
#        20595
#        48718
#        65719
#        81235
#        104896
#        119845
#        136041
#        152815
#        167612
#        188018
#        220823
#        254442
#        287360
#
# Disc length: 4291 seconds
#
# Revision: 3
# Processed by: cddbd v1.5.2PL0 Copyright (c) Steve Scherf et al.
# Submitted via: ExactAudioCopy v1.3
#
DISCID=d610c10f
DTITLE=Coheed And Cambria - Good Apollo I'm Burning Star IV, Volume On
DTITLE=e: From Fear Through The Eyes Of Madness
DYEAR=2005
DGENRE=Progressive Rock
TTITLE0=Keeping The Blade
TTITLE1=Always And Never
TTITLE2=Welcome Home
TTITLE3=Ten Speed (Of God's Blood And Burial)
TTITLE4=Crossing The Frame
TTITLE5=Apollo I: The Writing Writer
TTITLE6=Once Upon Your Dead Body
TTITLE7=Wake Up
TTITLE8=The Suffering
TTITLE9=The Lying Lies and Dirty Secrets Of Miss Erica Court
TTITLE10=Mother May I
TTITLE11=The Willing Well I - Fuel For The Feeding End
TTITLE12=The Willing Well II - From Fear Through The Eyes Of Madness
TTITLE13=The Willing Well III- Apollo II: The Telling Truth
TTITLE14=The Willing Well IV - The Final Cut
EXTD=YEAR: 2005
EXTT0=
EXTT1=
EXTT2=
EXTT3=
EXTT4=
EXTT5=
EXTT6=
EXTT7=
EXTT8=
EXTT9=
EXTT10=
EXTT11=
EXTT12=
EXTT13=
EXTT14=
PLAYORDER=
